# xmcd CD database file
#
# Track frame offsets:
#	150
#	15662
#	30812
#	46412
#	63437
#	83687
#	104312
#	122237
#	141062
#	157412
#	173237
#	189062
#	207812
#	223037
#	240737
#	255437
#	266387
#
# Disc length: 3853 seconds
#
# Revision: 0
# Processed by: cddbd v1.5.2PL0 Copyright (c) Steve Scherf et al.
# Submitted via: CDex 1.70beta2
#
DISCID=e00f0b11
DTITLE=Old Rivertown Jazzband - Dixieland Jubilee (I09)
DYEAR=1993
DGENRE=Jazz
TTITLE0=Original Dixieland One-Step
TTITLE1=Bourbon Street Parade
TTITLE2=Solid Old Man
TTITLE3=Riverboat Shuffle
TTITLE4=Do You Know What It Means To Miss New Orleans
TTITLE5=Splanky
TTITLE6=Someday You'll Be Sorry
TTITLE7=After You've Gone
TTITLE8=Moten Swing
TTITLE9=Ballin' The Jack
TTITLE10=Don't Get Around Much Anymore
TTITLE11=Black And Blue
TTITLE12=Watermelon Man
TTITLE13=Sister Kate
TTITLE14=Big Noise From Winnetka
TTITLE15=Savoy Blues
TTITLE16=Take The A-Train
EXTD=YEAR: 1993
EXTT0=
EXTT1=
EXTT2=
EXTT3=
EXTT4=
EXTT5=
EXTT6=
EXTT7=
EXTT8=
EXTT9=
EXTT10=
EXTT11=
EXTT12=
EXTT13=
EXTT14=
EXTT15=
EXTT16=
PLAYORDER=
